<svg width="800" height="520" viewBox="0 0 800 520" fill="none" xmlns="http://www.w3.org/2000/svg">
  <rect width="800" height="520" rx="48" fill="#E6F9EF"/>
  <path d="M120 340H680V420H120V340Z" fill="#FFFFFF" stroke="#2F855A" stroke-width="18"/>
  <path d="M120 260H520V340H120V260Z" fill="#FFFFFF" stroke="#2F855A" stroke-width="18"/>
  <rect x="520" y="300" width="120" height="100" rx="20" fill="#2F855A"/>
  <path d="M520 280L650 280L650 360L520 360V280Z" fill="#38A169"/>
  <path d="M180 260H460" stroke="#2F855A" stroke-width="18" stroke-linecap="round"/>
  <path d="M280 260V230C280 210 295 195 315 195H430" stroke="#2F855A" stroke-width="18" stroke-linecap="round"/>
  <path d="M430 195L450 195" stroke="#2F855A" stroke-width="18" stroke-linecap="round"/>
  <circle cx="230" cy="420" r="38" fill="#2F855A"/>
  <circle cx="230" cy="420" r="22" fill="#ffffff"/>
  <circle cx="540" cy="420" r="38" fill="#2F855A"/>
  <circle cx="540" cy="420" r="22" fill="#ffffff"/>
  <circle cx="660" cy="420" r="38" fill="#2F855A"/>
  <circle cx="660" cy="420" r="22" fill="#ffffff"/>
  <rect x="140" y="280" width="220" height="40" rx="18" fill="#E6F9EF"/>
  <rect x="620" y="180" width="100" height="90" rx="16" fill="#81E6D9"/>
  <line x1="140" y1="320" x2="360" y2="320" stroke="#68D391" stroke-width="10" stroke-linecap="round"/>
  <circle cx="120" cy="100" r="76" fill="#9AE6B4" opacity="0.35"/>
  <circle cx="720" cy="80" r="56" fill="#9AE6B4" opacity="0.35"/>
</svg>